<?xml version="1.0" standalone="yes"?>

<svg version="1.1" viewBox="0.0 0.0 598.6666666666666 688.4120734908137" fill="none" stroke="none" stroke-linecap="square" stroke-miterlimit="10" xmlns="http://www.w3.org/2000/svg" xmlns:xlink="http://www.w3.org/1999/xlink"><clipPath id="p.0"><path d="m0 0l598.6667 0l0 688.41205l-598.6667 0l0 -688.41205z" clip-rule="nonzero"></path></clipPath><g clip-path="url(#p.0)"><path fill="#000000" fill-opacity="0.0" d="m0 0l598.6667 0l0 688.41205l-598.6667 0z" fill-rule="evenodd"></path><path fill="#ff0000" d="m40.447002 286.64392l0 0c-1.5046501 -139.42798 110.65683 -253.6835 250.51967 -255.19685l0 0c67.16452 -0.72673416 131.86517 25.174334 179.86859 72.00527c48.003418 46.83094 75.37738 110.75559 76.099915 177.71127l0 0c1.5046387 139.42798 -110.65683 253.6835 -250.51968 255.19687l0 0c-139.86284 1.5133057 -254.46384 -110.288574 -255.96849 -249.71655zm158.67403 -1.7168884c0.5589447 51.79471 43.352524 93.32449 95.58212 92.75934c52.229614 -0.5651245 94.11694 -43.01117 93.558014 -94.80588c-0.55895996 -51.79471 -43.35254 -93.32448 -95.58212 -92.75934l0 0c-52.229614 0.5651245 -94.11696 43.01117 -93.558014 94.80588z" fill-rule="evenodd"></path><path fill="#ff0000" d="m198.74568 346.231l202.77165 218.70865l-102.834656 95.40155l-202.77164 -218.70865z" fill-rule="evenodd"></path></g></svg>

