<?xml version="1.0" standalone="yes"?>

<svg version="1.1" viewBox="0.0 0.0 785.9632545931759 669.007874015748" fill="none" stroke="none" stroke-linecap="square" stroke-miterlimit="10" xmlns="http://www.w3.org/2000/svg" xmlns:xlink="http://www.w3.org/1999/xlink"><clipPath id="p.0"><path d="m0 0l785.96326 0l0 669.0079l-785.96326 0l0 -669.0079z" clip-rule="nonzero"></path></clipPath><g clip-path="url(#p.0)"><path fill="#000000" fill-opacity="0.0" d="m0 0l785.96326 0l0 669.0079l-785.96326 0z" fill-rule="evenodd"></path><path fill="#ff0000" d="m134.77582 276.74048l0 0c-1.5209045 -139.42798 111.85193 -253.6835 253.22528 -255.19684l0 0c67.88989 -0.72673607 133.2893 25.174334 181.81116 72.00527c48.52185 46.830933 76.19147 110.755585 76.921814 177.71126l0 0c1.520874 139.42798 -111.85193 253.6835 -253.22528 255.19687l0 0c-141.37338 1.5133057 -257.2121 -110.288574 -258.73297 -249.71655zm158.67444 -1.6985474c0.5649719 51.79471 44.58777 93.316284 98.32767 92.741c53.73993 -0.57525635 96.84671 -43.02951 96.28171 -94.82422c-0.5649719 -51.794693 -44.58777 -93.31625 -98.32767 -92.741l0 0c-53.73993 0.5752716 -96.84671 43.02951 -96.28171 94.82422z" fill-rule="evenodd"></path><path fill="#ff0000" d="m300.79553 342.73956l198.91269 212.28345l-103.69055 95.18115l-198.9127 -212.28348z" fill-rule="evenodd"></path></g></svg>

